<svg width="48" height="48" viewBox="0 0 48 48" fill="none" xmlns="http://www.w3.org/2000/svg">
<g clip-path="url(#clip0_1895_40830)">
<rect width="48" height="48" rx="4" fill="#1851FF"/>
<path fill-rule="evenodd" clip-rule="evenodd" d="M33 20C31.6161 20 30.2632 20.4203 29.1126 21.2078C27.9619 21.9953 27.065 23.1146 26.5354 24.4241C26.0058 25.7336 25.8673 27.1746 26.1372 28.5648C26.4072 29.955 27.0737 31.232 28.0522 32.2343C29.0308 33.2365 30.2776 33.9191 31.6349 34.1956C32.9922 34.4722 34.3991 34.3302 35.6777 33.7878C36.9563 33.2454 38.0491 32.3268 38.818 31.1483C39.5868 29.9697 39.9972 28.5841 39.9972 27.1667C39.9972 25.2659 39.26 23.4431 37.9478 22.0991C36.6355 20.7551 34.8558 20 33 20ZM33 36.0196C31.0901 36.0769 29.2805 36.9082 27.9686 38.331C26.6566 39.7537 25.9496 41.6516 26.0028 43.6078V61.3137C25.9962 61.5292 26.0313 61.744 26.106 61.9455C26.1808 62.1471 26.2937 62.3316 26.4383 62.4883C26.5829 62.645 26.7563 62.7709 26.9486 62.8587C27.1409 62.9465 27.3482 62.9945 27.5586 63H38.4414C38.8621 62.9763 39.258 62.7882 39.5474 62.4745C39.8369 62.1608 39.9978 61.7453 39.9972 61.3137V43.6078C40.0504 41.6516 39.3434 39.7537 38.0314 38.331C36.7195 36.9082 34.9099 36.0769 33 36.0196Z" fill="#D1FF25"/>
<path fill-rule="evenodd" clip-rule="evenodd" d="M15.5018 11C14.0463 10.9993 12.6222 11.432 11.403 12.2453C10.1838 13.0587 9.22231 14.2175 8.6358 15.5804C8.04929 16.9433 7.86311 18.4514 8.09997 19.9207C8.33683 21.3901 8.9865 22.7571 9.96972 23.8551C10.3019 24.2055 10.4923 24.6713 10.5029 25.1593V25.8328C10.4919 26.3182 10.3013 26.7812 9.96972 27.1285C8.70406 28.5439 8.00256 30.3931 8.00352 32.3115V61.2951C8.00352 61.7473 8.17907 62.1809 8.49156 62.5006C8.80405 62.8204 9.22787 63 9.6698 63H21.3337C21.7756 63 22.1995 62.8204 22.512 62.5006C22.8244 62.1809 23 61.7473 23 61.2951V32.3115C22.9987 30.3919 22.2942 28.5426 21.0255 27.1285C20.6997 26.7781 20.5126 26.3163 20.5006 25.8328V25.1593C20.5121 24.6732 20.6991 24.2086 21.0255 23.8551C22.0082 22.7576 22.6577 21.3914 22.8949 19.9228C23.132 18.4543 22.9466 16.9469 22.3611 15.5843C21.7756 14.2217 20.8154 13.0628 19.5974 12.2488C18.3795 11.4349 16.9565 11.001 15.5018 11Z" fill="#D1FF25"/>
</g>
<defs>
<clipPath id="clip0_1895_40830">
<rect width="48" height="48" rx="4" fill="white"/>
</clipPath>
</defs>
</svg>
