<svg width="104" height="20" viewBox="0 0 104 20" fill="none" xmlns="http://www.w3.org/2000/svg">
<path d="M102.939 6.09229C103.395 6.09229 103.727 6.52666 103.606 6.96715L100.321 18.9845C100.239 19.2855 99.9654 19.4942 99.6534 19.4942H95.0878C94.7692 19.4942 94.4917 19.2767 94.4156 18.9673L93.2064 14.0527C93.0343 13.3533 92.0417 13.3489 91.8634 14.0467L90.6046 18.9733C90.5263 19.2798 90.2502 19.4942 89.9339 19.4942H85.39C85.0775 19.4942 84.8037 19.2849 84.7219 18.9833L81.4596 6.96597C81.3401 6.52575 81.6716 6.09229 82.1277 6.09229H85.6406C85.9752 6.09229 86.2619 6.33163 86.3217 6.66087L87.2443 11.74C87.3781 12.4771 88.4244 12.506 88.5987 11.7774L89.832 6.62348C89.9065 6.31199 90.185 6.09229 90.5053 6.09229H94.7975C95.1158 6.09229 95.3932 6.30938 95.4696 6.61841L96.7609 11.8408C96.9404 12.5664 97.9834 12.532 98.1146 11.7961L99.0296 6.66309C99.0885 6.33282 99.3757 6.09229 99.7112 6.09229H102.939Z" fill="#D1FF25"/>
<path d="M74.0301 19.6612C72.5953 19.6612 71.3057 19.3825 70.1613 18.8251C69.034 18.2676 68.1458 17.4713 67.4968 16.4361C66.8477 15.4009 66.5232 14.1826 66.5232 12.7811C66.5232 11.3955 66.8477 10.1851 67.4968 9.14987C68.1629 8.11466 69.0597 7.31835 70.187 6.76093C71.3314 6.20351 72.621 5.9248 74.0557 5.9248C75.4905 5.9248 76.7715 6.20351 77.8988 6.76093C79.0432 7.31835 79.94 8.11466 80.589 9.14987C81.2552 10.1851 81.5882 11.3955 81.5882 12.7811C81.5882 14.1666 81.2552 15.385 80.589 16.4361C79.94 17.4713 79.0432 18.2676 77.8988 18.8251C76.7544 19.3825 75.4649 19.6612 74.0301 19.6612ZM74.0301 15.6C74.7304 15.6 75.3111 15.3611 75.7723 14.8833C76.2506 14.3896 76.4897 13.6889 76.4897 12.7811C76.4897 11.8733 76.2506 11.1805 75.7723 10.7027C75.3111 10.2249 74.7389 9.986 74.0557 9.986C73.3725 9.986 72.8003 10.2249 72.3391 10.7027C71.8779 11.1805 71.6474 11.8733 71.6474 12.7811C71.6474 13.7048 71.8694 14.4055 72.3135 14.8833C72.7576 15.3611 73.3298 15.6 74.0301 15.6Z" fill="#D1FF25"/>
<path d="M60.2063 5.97266C61.8631 5.97266 63.1783 6.49026 64.1519 7.52547C65.1255 8.54475 65.6123 9.93033 65.6123 11.6822V18.8017C65.6123 19.1841 65.3023 19.494 64.92 19.494H61.2829C60.9006 19.494 60.5906 19.1841 60.5906 18.8017V12.3033C60.5906 11.5389 60.3771 10.9416 59.9501 10.5116C59.5231 10.0657 58.9509 9.84274 58.2335 9.84274C57.482 9.84274 56.8927 10.0657 56.4657 10.5116C56.0387 10.9416 55.8251 11.5389 55.8251 12.3033V18.8017C55.8251 19.1841 55.5152 19.494 55.1328 19.494H51.4958C51.1134 19.494 50.8035 19.1841 50.8035 18.8017V6.78441C50.8035 6.40206 51.1134 6.0921 51.4958 6.0921H55.3536C55.614 6.0921 55.8251 6.30321 55.8251 6.56363C55.8251 7.01928 56.4782 7.26469 56.8494 7.00035C57.0848 6.83263 57.3412 6.68118 57.6186 6.546C58.3701 6.16377 59.2327 5.97266 60.2063 5.97266Z" fill="#D1FF25"/>
<path d="M47.0704 12.7257C47.0704 12.9055 47.0644 13.0853 47.0525 13.2651C47.0296 13.6096 46.7338 13.8638 46.3886 13.8638H37.8735C37.4721 13.8638 37.1436 14.2086 37.25 14.5956C37.3613 15.0003 37.5431 15.3254 37.7954 15.571C38.2029 15.9339 38.7167 16.1153 39.3368 16.1153C40.0484 16.1153 40.5933 15.8715 40.9716 15.384C41.1308 15.1788 41.3605 15.0267 41.6202 15.0267H45.8727C46.3206 15.0267 46.6518 15.4477 46.4836 15.8628C46.2294 16.4902 45.8669 17.0692 45.3961 17.5998C44.7406 18.342 43.9078 18.9276 42.898 19.3564C41.8881 19.7853 40.7719 19.9997 39.5494 19.9997C38.0789 19.9997 36.7678 19.711 35.6162 19.1337C34.4823 18.5564 33.5876 17.7317 32.9321 16.6596C32.2943 15.5875 31.9753 14.3257 31.9753 12.8742C31.9753 11.4227 32.2943 10.1691 32.9321 9.11351C33.5699 8.04139 34.4557 7.21668 35.5896 6.63938C36.7413 6.06209 38.0612 5.77344 39.5494 5.77344C41.02 5.77344 42.3222 6.05384 43.4561 6.61464C44.59 7.17545 45.4758 7.98366 46.1136 9.03929C46.7515 10.0784 47.0704 11.3072 47.0704 12.7257ZM41.0629 11.5134C41.4453 11.5134 41.7752 11.1925 41.6423 10.834C41.5387 10.5544 41.3637 10.319 41.1174 10.1279C40.6922 9.78153 40.1607 9.60834 39.5228 9.60834C38.885 9.60834 38.3624 9.77328 37.9549 10.1032C37.7426 10.2664 37.5688 10.4722 37.4334 10.7205C37.2246 11.1036 37.564 11.5134 38.0003 11.5134H41.0629Z" fill="#D1FF25"/>
<path d="M24.9993 5.94824C26.6561 5.94824 27.9713 6.46585 28.9449 7.50105C29.9185 8.52033 30.4053 9.90592 30.4053 11.6578V18.7773C30.4053 19.1597 30.0953 19.4696 29.713 19.4696H26.0759C25.6935 19.4696 25.3836 19.1597 25.3836 18.7773V12.2789C25.3836 11.5145 25.1701 10.9172 24.7431 10.4872C24.3161 10.0413 23.7439 9.81832 23.0265 9.81832C22.2749 9.81832 21.6856 10.0413 21.2586 10.4872C20.8316 10.9172 20.6181 11.5145 20.6181 12.2789V18.7773C20.6181 19.1597 20.3082 19.4696 19.9258 19.4696H16.2887C15.9064 19.4696 15.5964 19.1597 15.5964 18.7773V6.76C15.5964 6.37765 15.9064 6.06769 16.2887 6.06769H20.1466C20.407 6.06769 20.6181 6.2788 20.6181 6.53922C20.6181 6.99487 21.2712 7.24027 21.6423 6.97594C21.8778 6.80822 22.1342 6.65677 22.4116 6.52159C23.1631 6.13936 24.0257 5.94824 24.9993 5.94824Z" fill="#D1FF25"/>
<path d="M10.1579 4.82565C9.26975 4.82565 8.55237 4.60269 8.00579 4.15675C7.4763 3.69489 7.21155 3.12155 7.21155 2.43672C7.21155 1.73596 7.4763 1.15465 8.00579 0.692793C8.55237 0.230931 9.26975 0 10.1579 0C11.029 0 11.7293 0.230931 12.2588 0.692793C12.8054 1.15465 13.0787 1.73596 13.0787 2.43672C13.0787 3.12155 12.8054 3.69489 12.2588 4.15675C11.7293 4.60269 11.029 4.82565 10.1579 4.82565ZM11.9509 6.0679C12.3332 6.0679 12.6432 6.37786 12.6432 6.76021V18.7775C12.6432 19.1599 12.3332 19.4698 11.9508 19.4698H8.31379C7.93144 19.4698 7.62148 19.1599 7.62148 18.7775V6.76021C7.62148 6.37786 7.93144 6.0679 8.31379 6.0679H11.9509Z" fill="#D1FF25"/>
<path d="M4.30961 0.0170898C4.69196 0.0170898 5.00191 0.327047 5.00191 0.709398V18.7776C5.00191 19.1599 4.69196 19.4699 4.30961 19.4699H0.692064C0.309713 19.4699 -0.000244141 19.1599 -0.000244141 18.7776V0.709399C-0.000244141 0.327048 0.309713 0.0170898 0.692064 0.0170898H4.30961Z" fill="#D1FF25"/>
</svg>
