<svg width="24" height="24" viewBox="0 0 24 24" fill="none" xmlns="http://www.w3.org/2000/svg">
<g clip-path="url(#clip0_5_932)">
<path d="M12 12C12.4812 12 12.8932 11.8238 13.2359 11.4713C13.5786 11.1188 13.75 10.695 13.75 10.2C13.75 9.705 13.5786 9.28125 13.2359 8.92875C12.8932 8.57625 12.4812 8.4 12 8.4C11.5187 8.4 11.1068 8.57625 10.7641 8.92875C10.4214 9.28125 10.25 9.705 10.25 10.2C10.25 10.695 10.4214 11.1188 10.7641 11.4713C11.1068 11.8238 11.5187 12 12 12ZM12 21C9.65208 18.945 7.89844 17.0363 6.73906 15.2738C5.57969 13.5113 5 11.88 5 10.38C5 8.13 5.70365 6.3375 7.11094 5.0025C8.51823 3.6675 10.1479 3 12 3C13.8521 3 15.4818 3.6675 16.8891 5.0025C18.2964 6.3375 19 8.13 19 10.38C19 11.88 18.4203 13.5113 17.2609 15.2738C16.1016 17.0363 14.3479 18.945 12 21Z" fill="#7E828B"/>
</g>
<defs>
<clipPath id="clip0_5_932">
<rect width="24" height="24" fill="white"/>
</clipPath>
</defs>
</svg>
